<?xml version="1.0" encoding="iso-8859-1"?>
<!-- Uploaded to: SVG Repo, www.svgrepo.com, Generator: SVG Repo Mixer Tools -->
<svg version="1.1" id="Layer_1" xmlns="http://www.w3.org/2000/svg" xmlns:xlink="http://www.w3.org/1999/xlink" 
	 viewBox="0 0 512 512" xml:space="preserve">
<path style="fill:#00DDC0;" d="M437.802,34.649v442.702c0,19.101-15.538,34.649-34.649,34.649H108.847
	c-19.111,0-34.649-15.548-34.649-34.649V34.649C74.198,15.548,89.736,0,108.847,0h294.306C422.264,0,437.802,15.548,437.802,34.649z
	"/>
<path style="fill:#00AC93;" d="M437.802,34.649v442.702c0,19.101-15.538,34.649-34.649,34.649H258.936V0h144.217
	C422.264,0,437.802,15.548,437.802,34.649z"/>
<rect x="129.849" y="65.609" style="fill:#FFDAA7;" width="252.311" height="75.146"/>
<rect x="258.936" y="65.609" style="fill:#F7C78D;" width="123.214" height="75.146"/>
<g>
	<rect x="129.849" y="185.992" style="fill:#FF4F18;" width="67.124" height="72.265"/>
	<rect x="222.438" y="185.992" style="fill:#FF4F18;" width="67.124" height="72.265"/>
</g>
<rect id="SVGCleanerId_0" x="315.037" y="185.992" style="fill:#FF3400;" width="67.114" height="72.265"/>
<g>
	<rect x="129.849" y="285.257" style="fill:#FF4F18;" width="67.124" height="72.265"/>
	<rect x="222.438" y="285.257" style="fill:#FF4F18;" width="67.124" height="72.265"/>
</g>
<rect id="SVGCleanerId_1" x="315.037" y="285.257" style="fill:#FF3400;" width="67.114" height="171.53"/>
<g>
	<rect x="129.849" y="384.522" style="fill:#FF4F18;" width="67.124" height="72.265"/>
	<rect x="222.438" y="384.522" style="fill:#FF4F18;" width="67.124" height="72.265"/>
</g>
<g>
	<rect x="258.936" y="185.992" style="fill:#FF3400;" width="30.626" height="72.265"/>
	<rect x="258.936" y="285.257" style="fill:#FF3400;" width="30.626" height="72.265"/>
	<rect x="258.936" y="384.522" style="fill:#FF3400;" width="30.626" height="72.265"/>
</g>
<g>
	<rect id="SVGCleanerId_0_1_" x="315.037" y="185.992" style="fill:#FF3400;" width="67.114" height="72.265"/>
</g>
<g>
	<rect id="SVGCleanerId_1_1_" x="315.037" y="285.257" style="fill:#FF3400;" width="67.114" height="171.53"/>
</g>
</svg>