<?xml version="1.0" encoding="iso-8859-1"?>
<!-- Uploaded to: SVG Repo, www.svgrepo.com, Generator: SVG Repo Mixer Tools -->
<svg version="1.1" id="Layer_1" xmlns="http://www.w3.org/2000/svg" xmlns:xlink="http://www.w3.org/1999/xlink" 
	 viewBox="0 0 512 512" xml:space="preserve">
<path style="fill:#C7C5CC;" d="M409.909,487.706C401.048,502.92,385.72,512,368.907,512H143.073
	c-16.624,0-31.848-8.923-40.741-23.876c-9.749-16.384-10.146-36.979-1.034-53.75l0.408-0.711l78.137-127.509l27.042-44.126V0h98.22
	v262.029l27.052,44.126l77.929,127.133l0.125,0.23C419.731,450.278,419.606,471.04,409.909,487.706z"/>
<path style="fill:#8A8791;" d="M410.212,433.518l-0.125-0.23l-77.929-127.133l-27.052-44.126V0h-50.005v512h113.806
	c16.812,0,32.141-9.08,41.002-24.294C419.606,471.04,419.731,450.278,410.212,433.518z"/>
<path style="fill:#00A5FF;" d="M382.815,471.939c-1.526,2.623-5.935,8.714-13.908,8.714H143.073c-7.586,0-11.901-5.36-13.803-8.547
	c-3.187-5.371-4.995-14.054-0.596-22.455l87.939-143.496h78.775l87.677,143.036C387.736,457.613,386.012,466.453,382.815,471.939z"
	/>
<path style="fill:#0087FF;" d="M383.066,449.191l-87.677-143.036h-40.287v174.498h113.806c7.973,0,12.382-6.092,13.908-8.714
	C386.012,466.453,387.736,457.613,383.066,449.191z"/>
<rect x="178.301" style="fill:#D8D7DA;" width="155.387" height="31.347"/>
<rect x="255.08" style="fill:#C7C5CC;" width="78.608" height="31.347"/>
<g>
	<rect x="190.035" y="378.943" style="fill:#75FDF4;" width="23.51" height="23.51"/>
	<rect x="221.382" y="409.506" style="fill:#75FDF4;" width="23.51" height="23.51"/>
	<rect x="180.892" y="428.053" style="fill:#75FDF4;" width="23.51" height="23.51"/>
</g>
</svg>