<?xml version="1.0" encoding="iso-8859-1"?>
<!-- Uploaded to: SVG Repo, www.svgrepo.com, Generator: SVG Repo Mixer Tools -->
<svg fill="#ffffff" height="800px" width="800px" version="1.1" id="Layer_1" xmlns="http://www.w3.org/2000/svg" xmlns:xlink="http://www.w3.org/1999/xlink" 
	 viewBox="0 0 512 512" xml:space="preserve">
<g transform="translate(1 1)">
	<g>
		<path d="M475.69,379.711v-55.216c15.185-3.946,26.483-17.81,26.483-34.185c0-19.421-15.89-35.31-35.31-35.31
			c-9.706,0-18.53,3.969-24.93,10.364l-46.934-27.608c0.805-2.949,1.243-6.044,1.243-9.239c0-16.375-11.297-30.239-26.483-34.185
			v-64.043c15.185-3.946,26.483-17.81,26.483-34.185c0-19.421-15.89-35.31-35.31-35.31c-9.706,0-18.53,3.969-24.93,10.364
			l-46.934-27.608c0.805-2.948,1.243-6.044,1.243-9.239C290.31,14.89,274.421-1,255-1s-35.31,15.89-35.31,35.31
			c0,3.195,0.438,6.29,1.243,9.239l-46.934,27.608c-6.399-6.395-15.223-10.364-24.93-10.364c-19.421,0-35.31,15.89-35.31,35.31
			c0,16.375,11.297,30.24,26.483,34.185v64.043c-15.185,3.946-26.483,17.81-26.483,34.185c0,3.195,0.438,6.29,1.243,9.239
			l-46.934,27.608C61.668,258.969,52.844,255,43.138,255c-19.421,0-35.31,15.89-35.31,35.31c0,16.375,11.297,30.239,26.483,34.185
			v55.216c-15.185,3.946-26.483,17.81-26.483,34.185c0,19.421,15.89,35.31,35.31,35.31c9.706,0,18.53-3.969,24.93-10.364
			l46.934,27.608c-0.805,2.948-1.243,6.044-1.243,9.239c0,19.421,15.89,35.31,35.31,35.31s35.31-15.89,35.31-35.31
			c0-3.195-0.438-6.29-1.243-9.239l46.934-27.608c6.399,6.395,15.223,10.364,24.93,10.364s18.53-3.969,24.93-10.364l46.934,27.608
			c-0.805,2.948-1.243,6.044-1.243,9.239c0,19.421,15.89,35.31,35.31,35.31s35.31-15.89,35.31-35.31c0-3.195-0.438-6.29-1.243-9.239
			l46.934-27.608c6.399,6.395,15.223,10.364,24.929,10.364c19.421,0,35.31-15.89,35.31-35.31
			C502.172,397.521,490.875,383.657,475.69,379.711z M466.862,272.655c9.71,0,17.655,7.945,17.655,17.655
			s-7.945,17.655-17.655,17.655c-6.439,0-12.085-3.504-15.17-8.689c-0.264-0.443-0.507-0.899-0.732-1.366
			c-1.112-2.308-1.754-4.88-1.754-7.601c0,0,0,0,0,0c0-0.408,0.034-0.807,0.062-1.209c0.219-2.451,1.078-5.355,2.587-7.619
			c0.099-0.296,0.197-0.592,0.293-0.887C455.317,275.822,460.735,272.655,466.862,272.655z M272.596,280.312
			c0.026,0.389,0.06,0.775,0.06,1.17c0,9.71-7.945,17.655-17.655,17.655s-17.655-7.945-17.655-17.655
			c0-0.395,0.034-0.781,0.06-1.169c0.175-1.92,0.74-3.84,1.37-5.76c2.708-6.291,8.973-10.726,16.226-10.726
			c7.254,0,13.519,4.435,16.226,10.726C271.856,276.473,272.421,278.393,272.596,280.312z M378.586,228.517
			c0,2.717-0.64,5.286-1.749,7.591c-0.323,0.379-0.628,0.784-0.899,1.236c-2.258,4.515-7.083,7.739-12.286,8.594
			c-0.194,0.03-0.386,0.065-0.582,0.089c-0.215,0.028-0.431,0.048-0.648,0.068c-0.493,0.042-0.988,0.076-1.492,0.076
			c-7.253,0-13.518-4.435-16.226-10.725c-0.63-1.92-1.195-3.84-1.37-5.76c-0.026-0.388-0.06-0.775-0.06-1.169
			c0-9.71,7.945-17.655,17.655-17.655S378.586,218.807,378.586,228.517z M360.931,78.448c9.71,0,17.655,7.945,17.655,17.655
			s-7.945,17.655-17.655,17.655s-17.655-7.945-17.655-17.655c0-0.408,0.034-0.808,0.062-1.209c0.219-2.451,1.078-5.355,2.587-7.619
			c0.107-0.322,0.215-0.63,0.319-0.929C349.416,81.596,354.822,78.448,360.931,78.448z M255,16.655
			c9.71,0,17.655,7.945,17.655,17.655c0,2.717-0.64,5.286-1.749,7.591c-0.323,0.379-0.628,0.784-0.899,1.236
			c-2.258,4.516-7.085,7.74-12.289,8.595c-0.192,0.03-0.383,0.065-0.578,0.089c-0.216,0.028-0.433,0.049-0.65,0.068
			c-0.493,0.042-0.988,0.076-1.491,0.076c-0.492,0-0.976-0.034-1.458-0.074c-0.254-0.023-0.508-0.046-0.758-0.081
			c-0.054-0.007-0.107-0.017-0.16-0.025c-5.157-0.776-9.562-4.043-12.631-8.647c-0.271-0.452-0.576-0.858-0.899-1.236
			c-1.109-2.305-1.749-4.874-1.749-7.591C237.345,24.6,245.29,16.655,255,16.655z M230.006,59.189
			c1.483,1.489,3.1,2.842,4.826,4.051c5.645,4.247,12.638,6.38,20.168,6.38c6.259,0,12.148-1.478,17.438-4.648
			c3.134-1.794,5.97-4.051,8.413-6.681l46.428,27.156c-0.715,2.242-1.213,4.578-1.465,6.985c-0.119,0.887-0.193,1.802-0.193,2.788
			c0,0.161,0.008,0.32,0.01,0.481c-0.002,0.134-0.01,0.267-0.01,0.402c0,16.375,11.297,30.24,26.483,34.185v63.801
			c-4.375,1.287-8.446,3.328-12.024,5.984c-0.175,0.129-0.348,0.26-0.521,0.392c-0.188,0.144-0.373,0.291-0.558,0.439
			c-0.254,0.203-0.508,0.406-0.756,0.616c-0.07,0.059-0.139,0.121-0.209,0.181c-0.886,0.758-1.733,1.559-2.541,2.4
			c-0.173,0.18-0.347,0.358-0.516,0.541c-0.138,0.15-0.273,0.302-0.408,0.454c-0.256,0.286-0.507,0.575-0.754,0.869
			c-0.065,0.078-0.13,0.156-0.194,0.234c-4.243,5.146-7.064,11.489-7.803,18.588c-0.008,0.073-0.016,0.146-0.024,0.219
			c-0.047,0.477-0.083,0.959-0.111,1.443c-0.007,0.113-0.016,0.225-0.022,0.339c-0.027,0.572-0.044,1.148-0.044,1.729
			c0,2.307,0.001,4.613,0.585,6.336c0.049,0.267,0.091,0.536,0.146,0.8l-44.869,21.995c-6.179-7.945-15.89-12.359-26.483-12.359
			c-10.593,0-20.303,4.414-26.483,12.359l-44.869-21.995c0.054-0.263,0.097-0.53,0.145-0.795c0.585-1.711,0.586-3.92,0.586-5.459
			c0-0.161-0.008-0.32-0.01-0.481c0.002-0.134,0.01-0.267,0.01-0.402c0-16.375-11.297-30.239-26.483-34.185v-63.801
			c4.374-1.287,8.445-3.328,12.023-5.984c0.176-0.13,0.35-0.261,0.524-0.394c0.186-0.143,0.37-0.289,0.554-0.436
			c0.255-0.204,0.51-0.408,0.76-0.619c0.069-0.058,0.135-0.118,0.203-0.176c0.887-0.759,1.736-1.561,2.544-2.402
			c0.174-0.18,0.348-0.359,0.518-0.543c0.138-0.149,0.272-0.301,0.407-0.453c0.256-0.286,0.508-0.577,0.755-0.871
			c0.065-0.077,0.129-0.155,0.193-0.232c4.243-5.146,7.065-11.49,7.803-18.588c0.008-0.073,0.016-0.146,0.024-0.219
			c0.047-0.477,0.083-0.959,0.111-1.443c0.007-0.113,0.016-0.225,0.022-0.339c0.027-0.572,0.044-1.148,0.044-1.729
			c0-2.463-0.258-4.869-0.744-7.194c-0.083-0.802-0.139-1.632-0.139-2.517L230.006,59.189z M131.414,96.103
			c0-9.71,7.945-17.655,17.655-17.655c5.97,0,11.263,3.01,14.463,7.579c0.171,0.448,0.356,0.872,0.544,1.248
			c1.509,2.263,2.367,5.167,2.587,7.618c0.028,0.402,0.062,0.802,0.062,1.21c0,9.71-7.945,17.655-17.655,17.655
			S131.414,105.814,131.414,96.103z M149.069,210.862c2.625,0,5.113,0.597,7.358,1.636c0.869,0.402,1.709,0.857,2.495,1.39
			c2.063,1.397,3.802,3.228,5.122,5.345c0.281,0.451,0.543,0.913,0.783,1.39c1.202,2.381,1.896,5.058,1.896,7.895
			c0,0.395-0.034,0.782-0.06,1.171c-0.175,1.92-0.74,3.839-1.369,5.759c-2.708,6.291-8.973,10.726-16.226,10.726
			c-0.492,0-0.976-0.034-1.458-0.074c-0.254-0.023-0.508-0.046-0.758-0.081c-0.054-0.007-0.107-0.017-0.16-0.025
			c-5.157-0.777-9.562-4.043-12.631-8.647c-0.28-0.467-0.596-0.898-0.932-1.304c-1.089-2.288-1.716-4.833-1.716-7.524
			C131.414,218.807,139.359,210.862,149.069,210.862z M25.483,290.31c0-9.71,7.945-17.655,17.655-17.655
			c5.97,0,11.263,3.01,14.463,7.579c0.171,0.448,0.356,0.872,0.544,1.248c1.509,2.263,2.367,5.168,2.587,7.619
			c0.028,0.401,0.062,0.801,0.062,1.209c0,9.71-7.945,17.655-17.655,17.655S25.483,300.021,25.483,290.31z M43.138,431.552
			c-9.71,0-17.655-7.945-17.655-17.655s7.945-17.655,17.655-17.655s17.655,7.945,17.655,17.655c0,0.408-0.034,0.808-0.062,1.209
			c-0.219,2.451-1.078,5.355-2.587,7.619c-0.099,0.296-0.197,0.592-0.293,0.887C54.683,428.385,49.265,431.552,43.138,431.552z
			 M149.069,493.345c-9.71,0-17.655-7.945-17.655-17.655c0-2.778,0.668-5.401,1.824-7.745c0.291-0.343,0.57-0.7,0.825-1.082
			c2.258-4.516,7.085-7.74,12.289-8.595c0.192-0.03,0.383-0.065,0.578-0.089c0.216-0.028,0.433-0.049,0.65-0.068
			c0.493-0.042,0.988-0.076,1.491-0.076c0.492,0,0.976,0.034,1.458,0.074c0.254,0.023,0.508,0.046,0.758,0.081
			c0.054,0.007,0.107,0.017,0.16,0.025c5.157,0.777,9.562,4.043,12.631,8.647c0.28,0.467,0.596,0.898,0.932,1.304
			c1.089,2.288,1.716,4.833,1.716,7.524C166.724,485.4,158.779,493.345,149.069,493.345z M219.69,423.607l-45.959,26.882
			c-6.377-6.243-15.088-10.109-24.662-10.109c-0.139,0-0.277,0.009-0.416,0.011c-0.156-0.002-0.31-0.011-0.467-0.011
			c-8.828,0-18.538,3.531-24.717,10.593l-46.454-27.171c0.726-2.465,1.19-5.039,1.356-7.691c0.045-0.446,0.077-0.889,0.077-1.331
			c0-0.161-0.008-0.32-0.01-0.481c0.002-0.134,0.01-0.267,0.01-0.402c0-16.375-11.297-30.24-26.483-34.185v-54.973
			c4.375-1.287,8.447-3.329,12.025-5.985c0.174-0.128,0.347-0.259,0.519-0.39c0.189-0.145,0.375-0.293,0.561-0.441
			c0.253-0.202,0.506-0.405,0.753-0.614c0.072-0.061,0.142-0.124,0.214-0.185c0.883-0.756,1.728-1.555,2.534-2.393
			c0.174-0.181,0.349-0.361,0.52-0.545c0.137-0.149,0.272-0.301,0.407-0.453c0.256-0.286,0.508-0.577,0.755-0.871
			c0.065-0.077,0.129-0.155,0.193-0.232c4.243-5.146,7.065-11.49,7.803-18.589c0.008-0.073,0.016-0.146,0.024-0.219
			c0.047-0.477,0.083-0.959,0.111-1.443c0.007-0.113,0.016-0.225,0.022-0.339c0.027-0.572,0.044-1.148,0.044-1.729
			c0-2.464-0.258-4.87-0.744-7.194c-0.083-0.802-0.139-1.631-0.139-2.516l46.51-27.204c1.483,1.489,3.1,2.842,4.826,4.051
			c5.645,4.247,12.638,6.38,20.168,6.38c0.614,0,1.224-0.016,1.83-0.048c8.01-0.388,15.412-3.327,21.03-8.417
			c1.173-1.001,2.284-2.071,3.317-3.215l45.012,22.17c-0.566,1.717-0.569,3.998-0.569,6.281c0,0.161,0.008,0.32,0.01,0.481
			c-0.002,0.134-0.01,0.267-0.01,0.402c0,16.375,11.297,30.24,26.483,34.185v63.801c-4.375,1.287-8.445,3.328-12.023,5.984
			c-0.176,0.129-0.349,0.261-0.522,0.393c-0.187,0.144-0.372,0.29-0.557,0.438c-0.255,0.203-0.509,0.407-0.758,0.617
			c-0.069,0.058-0.136,0.118-0.204,0.177c-0.887,0.759-1.736,1.561-2.545,2.403c-0.173,0.179-0.346,0.358-0.516,0.541
			c-0.138,0.15-0.273,0.303-0.409,0.456c-0.255,0.285-0.506,0.575-0.753,0.868c-0.065,0.078-0.13,0.156-0.195,0.235
			c-4.242,5.146-7.064,11.489-7.802,18.587c-0.008,0.073-0.016,0.146-0.024,0.219c-0.047,0.477-0.083,0.958-0.111,1.442
			c-0.007,0.113-0.016,0.226-0.022,0.339c-0.027,0.572-0.044,1.148-0.044,1.729c0,1.543,0.111,3.06,0.305,4.551
			C220.126,420.095,220.16,421.726,219.69,423.607z M255,431.552c-5.883,0-11.104-2.927-14.317-7.385
			c-0.184-0.488-0.407-0.971-0.69-1.443c-1.509-2.263-2.367-5.168-2.587-7.619c-0.028-0.401-0.062-0.801-0.062-1.209
			c0-9.71,7.945-17.655,17.655-17.655c2.625,0,5.113,0.597,7.358,1.636c0.869,0.402,1.709,0.857,2.495,1.39
			c2.063,1.397,3.802,3.228,5.122,5.345c0.329,0.527,0.628,1.071,0.901,1.633c1.127,2.321,1.778,4.911,1.778,7.652
			c0,0.408-0.034,0.808-0.062,1.21c-0.219,2.451-1.078,5.355-2.587,7.618c-0.099,0.296-0.197,0.592-0.293,0.887
			C266.545,428.385,261.127,431.552,255,431.552z M360.931,493.345c-9.71,0-17.655-7.945-17.655-17.655
			c0-2.778,0.668-5.401,1.824-7.745c0.291-0.343,0.57-0.7,0.825-1.082c2.259-4.517,7.087-7.741,12.292-8.595
			c0.191-0.03,0.38-0.064,0.573-0.088c0.217-0.028,0.435-0.049,0.652-0.069c0.491-0.042,0.984-0.076,1.486-0.076
			c0.001,0,0.003,0,0.004,0c0.001,0,0.003,0,0.004,0c0.49,0,0.972,0.034,1.453,0.074c0.255,0.023,0.509,0.047,0.76,0.082
			c0.053,0.007,0.104,0.017,0.157,0.024c5.158,0.776,9.563,4.043,12.633,8.648c0.28,0.467,0.596,0.898,0.932,1.304
			c1.088,2.288,1.716,4.833,1.716,7.523C378.586,485.4,370.641,493.345,360.931,493.345z M431.552,423.607l-45.959,26.882
			c-6.377-6.243-15.088-10.109-24.662-10.109c-0.139,0-0.277,0.009-0.416,0.011c-0.156-0.002-0.31-0.011-0.467-0.011
			c-8.828,0-18.538,3.531-24.717,10.593l-46.454-27.171c0.726-2.465,1.19-5.039,1.356-7.691c0.045-0.446,0.077-0.889,0.077-1.331
			c0-0.161-0.008-0.32-0.01-0.481c0.002-0.134,0.01-0.267,0.01-0.402c0-16.375-11.297-30.24-26.483-34.185V315.91
			c4.375-1.287,8.446-3.328,12.024-5.984c0.175-0.129,0.348-0.26,0.521-0.392c0.188-0.144,0.373-0.291,0.558-0.439
			c0.254-0.203,0.508-0.406,0.756-0.616c0.07-0.06,0.139-0.121,0.209-0.181c0.885-0.757,1.731-1.557,2.538-2.396
			c0.174-0.181,0.349-0.361,0.52-0.545c0.138-0.149,0.272-0.301,0.407-0.453c0.256-0.286,0.508-0.577,0.755-0.871
			c0.065-0.077,0.129-0.154,0.193-0.232c4.243-5.146,7.065-11.49,7.803-18.588c0.008-0.073,0.016-0.146,0.024-0.219
			c0.047-0.477,0.083-0.958,0.111-1.442c0.007-0.113,0.016-0.226,0.022-0.339c0.027-0.572,0.044-1.148,0.044-1.729
			c0-2.633-0.002-5.266-0.869-7.899l22.471-11.068l22.337-10.95c1.177,1.36,2.454,2.629,3.822,3.797
			c5.618,5.09,13.019,8.028,21.03,8.416c0.606,0.031,1.216,0.048,1.83,0.048c6.259,0,12.148-1.477,17.437-4.648
			c3.134-1.794,5.971-4.051,8.414-6.681l46.428,27.156c-0.715,2.242-1.213,4.578-1.465,6.985c-0.119,0.887-0.193,1.802-0.193,2.788
			c0,0.161,0.008,0.32,0.01,0.481c-0.002,0.134-0.01,0.267-0.01,0.402c0,16.375,11.297,30.239,26.483,34.185v54.973
			c-4.374,1.287-8.445,3.328-12.023,5.983c-0.176,0.13-0.35,0.261-0.523,0.394c-0.187,0.144-0.372,0.29-0.556,0.437
			c-0.255,0.203-0.508,0.407-0.757,0.617c-0.07,0.06-0.139,0.121-0.209,0.181c-0.886,0.758-1.733,1.559-2.541,2.399
			c-0.173,0.18-0.347,0.359-0.516,0.542c-0.138,0.149-0.272,0.301-0.407,0.453c-0.256,0.286-0.507,0.576-0.754,0.87
			c-0.065,0.078-0.13,0.156-0.195,0.235c-4.242,5.146-7.064,11.489-7.802,18.587c-0.008,0.073-0.016,0.146-0.024,0.219
			c-0.047,0.477-0.083,0.958-0.111,1.442c-0.007,0.113-0.016,0.226-0.022,0.339c-0.027,0.572-0.044,1.148-0.044,1.729
			c0,1.542,0.111,3.059,0.305,4.55C431.988,420.094,432.022,421.725,431.552,423.607z M466.862,431.552
			c-5.883,0-11.104-2.927-14.317-7.385c-0.184-0.488-0.407-0.971-0.69-1.443c-1.509-2.263-2.367-5.168-2.587-7.619
			c-0.028-0.401-0.062-0.801-0.062-1.209c0-9.71,7.945-17.655,17.655-17.655c0,0,0,0,0.001,0c9.71,0,17.655,7.945,17.655,17.655
			C484.517,423.607,476.572,431.552,466.862,431.552z"/>
	</g>
</g>
</svg>
