<?xml version="1.0" encoding="iso-8859-1"?>
<!-- Uploaded to: SVG Repo, www.svgrepo.com, Generator: SVG Repo Mixer Tools -->
<svg version="1.1" id="Layer_1" xmlns="http://www.w3.org/2000/svg" xmlns:xlink="http://www.w3.org/1999/xlink" 
	 viewBox="0 0 512 512" xml:space="preserve">
<path style="fill:#C7C5CC;" d="M173.098,0v429.098C173.098,474.812,210.286,512,256,512c0.355,0,0.721,0,1.076-0.021
	c45.223-0.564,81.826-37.522,81.826-82.881V0H173.098z M307.555,429.098c0,28.076-22.538,50.97-50.479,51.534
	c-0.355,0.021-0.721,0.021-1.076,0.021c-28.432,0-51.555-23.124-51.555-51.555v-285.8h103.111V429.098z"/>
<path style="fill:#8A8791;" d="M338.902,0v429.098c0,45.359-36.603,82.317-81.826,82.881V0H338.902z"/>
<rect x="140.539" style="fill:#D8D7DA;" width="230.922" height="31.347"/>
<rect x="257.045" style="fill:#C7C5CC;" width="114.416" height="31.347"/>
<path style="fill:#FF4F18;" d="M307.555,143.297v285.8c0,28.076-22.538,50.97-50.479,51.534c-0.355,0.021-0.721,0.021-1.076,0.021
	c-28.432,0-51.555-23.124-51.555-51.555v-285.8H307.555z"/>
<path style="fill:#FF3400;" d="M307.555,143.297v285.8c0,28.076-22.538,50.97-50.479,51.534V143.297H307.555z"/>
<rect x="230.39" y="355.234" style="fill:#FFDAA7;" width="23.51" height="23.51"/>
<rect x="261.736" y="385.797" style="fill:#F2C794;" width="23.51" height="23.51"/>
<rect x="221.247" y="404.344" style="fill:#FFDAA7;" width="23.51" height="23.51"/>
</svg>